<mxfile host="app.diagrams.net" modified="2024-05-24T05:59:42.958Z" agent="Mozilla/5.0 (Windows NT 10.0; Win64; x64) AppleWebKit/537.36 (KHTML, like Gecko) Chrome/121.0.0.0 Safari/537.36" etag="5XKQb2kEuaDOc1ithHsu" version="24.4.7" type="github">
  <diagram name="第 1 页" id="d0vkmH2pamWl0RuNKjzO">
    <mxGraphModel dx="1834" dy="746" grid="0" gridSize="10" guides="1" tooltips="1" connect="1" arrows="1" fold="1" page="0" pageScale="1" pageWidth="827" pageHeight="1169" math="0" shadow="0">
      <root>
        <mxCell id="0" />
        <mxCell id="1" parent="0" />
        <mxCell id="8cizAA6b8KzGThsObKtE-12" style="edgeStyle=orthogonalEdgeStyle;curved=1;rounded=0;orthogonalLoop=1;jettySize=auto;html=1;exitX=0.5;exitY=1;exitDx=0;exitDy=0;entryX=1;entryY=0.5;entryDx=0;entryDy=0;" edge="1" parent="1" source="8cizAA6b8KzGThsObKtE-3" target="8cizAA6b8KzGThsObKtE-4">
          <mxGeometry relative="1" as="geometry" />
        </mxCell>
        <mxCell id="8cizAA6b8KzGThsObKtE-3" value="node2" style="ellipse;whiteSpace=wrap;html=1;aspect=fixed;fillColor=#dae8fc;strokeColor=#6c8ebf;" vertex="1" parent="1">
          <mxGeometry x="32" y="160" width="40" height="40" as="geometry" />
        </mxCell>
        <mxCell id="8cizAA6b8KzGThsObKtE-13" style="edgeStyle=orthogonalEdgeStyle;curved=1;rounded=0;orthogonalLoop=1;jettySize=auto;html=1;exitX=0;exitY=0.5;exitDx=0;exitDy=0;entryX=0.5;entryY=1;entryDx=0;entryDy=0;" edge="1" parent="1" source="8cizAA6b8KzGThsObKtE-4" target="8cizAA6b8KzGThsObKtE-5">
          <mxGeometry relative="1" as="geometry" />
        </mxCell>
        <mxCell id="8cizAA6b8KzGThsObKtE-4" value="node3" style="ellipse;whiteSpace=wrap;html=1;aspect=fixed;fillColor=#dae8fc;strokeColor=#6c8ebf;" vertex="1" parent="1">
          <mxGeometry x="-60" y="251" width="40" height="40" as="geometry" />
        </mxCell>
        <mxCell id="8cizAA6b8KzGThsObKtE-19" style="edgeStyle=orthogonalEdgeStyle;curved=1;rounded=0;orthogonalLoop=1;jettySize=auto;html=1;exitX=0.5;exitY=0;exitDx=0;exitDy=0;entryX=0;entryY=0.5;entryDx=0;entryDy=0;" edge="1" parent="1" source="8cizAA6b8KzGThsObKtE-5" target="8cizAA6b8KzGThsObKtE-17">
          <mxGeometry relative="1" as="geometry" />
        </mxCell>
        <mxCell id="8cizAA6b8KzGThsObKtE-5" value="node1" style="ellipse;whiteSpace=wrap;html=1;aspect=fixed;fillColor=#dae8fc;strokeColor=#6c8ebf;" vertex="1" parent="1">
          <mxGeometry x="-152" y="160" width="40" height="40" as="geometry" />
        </mxCell>
        <mxCell id="8cizAA6b8KzGThsObKtE-17" value="&lt;font style=&quot;font-size: 11px;&quot;&gt;2^&lt;sup&gt;32&lt;/sup&gt;-1&lt;/font&gt;" style="ellipse;whiteSpace=wrap;html=1;aspect=fixed;fillColor=#dae8fc;strokeColor=#6c8ebf;" vertex="1" parent="1">
          <mxGeometry x="-69" y="69" width="35" height="35" as="geometry" />
        </mxCell>
        <mxCell id="8cizAA6b8KzGThsObKtE-20" style="edgeStyle=orthogonalEdgeStyle;curved=1;rounded=0;orthogonalLoop=1;jettySize=auto;html=1;exitX=1;exitY=0.5;exitDx=0;exitDy=0;entryX=0.5;entryY=0;entryDx=0;entryDy=0;" edge="1" parent="1" source="8cizAA6b8KzGThsObKtE-18" target="8cizAA6b8KzGThsObKtE-3">
          <mxGeometry relative="1" as="geometry" />
        </mxCell>
        <mxCell id="8cizAA6b8KzGThsObKtE-18" value="0" style="ellipse;whiteSpace=wrap;html=1;aspect=fixed;fontSize=11;fillColor=#dae8fc;strokeColor=#6c8ebf;" vertex="1" parent="1">
          <mxGeometry x="-34" y="69" width="35" height="35" as="geometry" />
        </mxCell>
        <mxCell id="8cizAA6b8KzGThsObKtE-21" value="1" style="ellipse;shape=cloud;whiteSpace=wrap;html=1;fillColor=#d5e8d4;strokeColor=#82b366;" vertex="1" parent="1">
          <mxGeometry x="49" y="128" width="40" height="20" as="geometry" />
        </mxCell>
        <mxCell id="8cizAA6b8KzGThsObKtE-24" value="2" style="ellipse;shape=cloud;whiteSpace=wrap;html=1;fillColor=#d5e8d4;strokeColor=#82b366;" vertex="1" parent="1">
          <mxGeometry x="-2" y="265" width="40" height="20" as="geometry" />
        </mxCell>
        <mxCell id="8cizAA6b8KzGThsObKtE-26" value="3" style="ellipse;shape=cloud;whiteSpace=wrap;html=1;fillColor=#d5e8d4;strokeColor=#82b366;" vertex="1" parent="1">
          <mxGeometry x="-168" y="213" width="40" height="20" as="geometry" />
        </mxCell>
        <mxCell id="8cizAA6b8KzGThsObKtE-30" value="负载均衡算法" style="text;html=1;align=center;verticalAlign=middle;whiteSpace=wrap;rounded=0;" vertex="1" parent="1">
          <mxGeometry x="-70" y="165" width="60" height="30" as="geometry" />
        </mxCell>
      </root>
    </mxGraphModel>
  </diagram>
</mxfile>
